<?xml version="1.0" encoding="UTF-8"?>
<svg width="700pt" height="700pt" version="1.1" viewBox="0 0 700 700" xmlns="http://www.w3.org/2000/svg" xmlns:xlink="http://www.w3.org/1999/xlink">
 <defs>
  <symbol id="u" overflow="visible">
   <path d="m7.8125-0.46875c-0.39844 0.21094-0.8125 0.36719-1.25 0.46875-0.4375 0.11328-0.89844 0.17188-1.375 0.17188-1.418 0-2.543-0.39453-3.375-1.1875-0.82422-0.80078-1.2344-1.8789-1.2344-3.2344 0-1.3516 0.41016-2.4258 1.2344-3.2188 0.83203-0.78906 1.957-1.1875 3.375-1.1875 0.47656 0 0.9375 0.054688 1.375 0.15625 0.4375 0.10547 0.85156 0.26172 1.25 0.46875v1.7656c-0.40625-0.28125-0.80859-0.48438-1.2031-0.60938-0.38672-0.13281-0.79688-0.20312-1.2344-0.20312-0.79297 0-1.4141 0.25781-1.8594 0.76562-0.44922 0.5-0.67188 1.1875-0.67188 2.0625 0 0.88672 0.22266 1.5781 0.67188 2.0781 0.44531 0.5 1.0664 0.75 1.8594 0.75 0.4375 0 0.84766-0.0625 1.2344-0.1875 0.39453-0.13281 0.79688-0.34375 1.2031-0.625z"/>
  </symbol>
  <symbol id="c" overflow="visible">
   <path d="m5.7188-4.6406c-0.17969-0.082031-0.35547-0.14453-0.53125-0.1875-0.17969-0.039063-0.35547-0.0625-0.53125-0.0625-0.52344 0-0.92969 0.17188-1.2188 0.51562-0.28125 0.33594-0.42188 0.8125-0.42188 1.4375v2.9375h-2.0312v-6.3906h2.0312v1.0625c0.25781-0.42578 0.5625-0.73438 0.90625-0.92188s0.75-0.28125 1.2188-0.28125c0.070313 0 0.14453 0.007812 0.21875 0.015625 0.082031 0 0.20312 0.011719 0.35938 0.03125z"/>
  </symbol>
  <symbol id="b" overflow="visible">
   <path d="m7.3594-3.2031v0.57812h-4.7812c0.050781 0.48047 0.22266 0.83984 0.51562 1.0781 0.30078 0.24219 0.71875 0.35938 1.25 0.35938 0.42578 0 0.86328-0.0625 1.3125-0.1875 0.45703-0.13281 0.92188-0.32812 1.3906-0.57812v1.5625c-0.48047 0.1875-0.96484 0.32812-1.4531 0.42188-0.48047 0.09375-0.96094 0.14062-1.4375 0.14062-1.1562 0-2.0586-0.28906-2.7031-0.875-0.63672-0.59375-0.95312-1.4219-0.95312-2.4844 0-1.0391 0.3125-1.8594 0.9375-2.4531 0.63281-0.59375 1.5039-0.89062 2.6094-0.89062 1 0 1.8008 0.30469 2.4062 0.90625 0.60156 0.60547 0.90625 1.4141 0.90625 2.4219zm-2.1094-0.6875c0-0.38281-0.11719-0.69531-0.34375-0.9375-0.21875-0.23828-0.51172-0.35938-0.875-0.35938-0.39844 0-0.71875 0.11719-0.96875 0.34375-0.24219 0.21875-0.39062 0.53906-0.45312 0.95312z"/>
  </symbol>
  <symbol id="f" overflow="visible">
   <path d="m3.8438-2.875c-0.42969 0-0.75 0.074219-0.96875 0.21875-0.21094 0.14844-0.3125 0.35938-0.3125 0.64062 0 0.26172 0.082031 0.46484 0.25 0.60938 0.17578 0.14844 0.42188 0.21875 0.73438 0.21875 0.375 0 0.69141-0.13281 0.95312-0.40625 0.26953-0.28125 0.40625-0.62891 0.40625-1.0469v-0.23438zm3.1094-0.76562v3.6406h-2.0469v-0.95312c-0.28125 0.39844-0.59375 0.68359-0.9375 0.85938-0.33594 0.17578-0.74609 0.26562-1.2344 0.26562-0.66797 0-1.2109-0.19141-1.625-0.57812-0.40625-0.38281-0.60938-0.89062-0.60938-1.5156 0-0.73828 0.25391-1.2852 0.76562-1.6406 0.51953-0.35156 1.332-0.53125 2.4375-0.53125h1.2031v-0.15625c0-0.32031-0.13281-0.55469-0.39062-0.70312-0.25-0.15625-0.64844-0.23438-1.1875-0.23438-0.4375 0-0.84375 0.046875-1.2188 0.14062-0.375 0.085937-0.72656 0.21484-1.0469 0.39062v-1.5625c0.4375-0.10156 0.875-0.17969 1.3125-0.23438 0.4375-0.050781 0.87891-0.078125 1.3281-0.078125 1.1445 0 1.9727 0.23047 2.4844 0.6875 0.50781 0.44922 0.76562 1.1836 0.76562 2.2031z"/>
  </symbol>
  <symbol id="a" overflow="visible">
   <path d="m3.2031-8.2031v1.8125h2.1094v1.4688h-2.1094v2.7031c0 0.30469 0.054687 0.50781 0.17188 0.60938 0.125 0.10547 0.36328 0.15625 0.71875 0.15625h1.0469v1.4531h-1.75c-0.8125 0-1.3867-0.16406-1.7188-0.5-0.33594-0.34375-0.5-0.91406-0.5-1.7188v-2.7031h-1.0156v-1.4688h1.0156v-1.8125z"/>
  </symbol>
  <symbol id="l" overflow="visible">
   <path d="m5.3281-5.4531v-3.4219h2.0469v8.875h-2.0469v-0.92188c-0.28125 0.375-0.59375 0.65234-0.9375 0.82812-0.33594 0.17578-0.72656 0.26562-1.1719 0.26562-0.78125 0-1.4297-0.3125-1.9375-0.9375-0.5-0.625-0.75-1.4297-0.75-2.4219 0-0.97656 0.25-1.7812 0.75-2.4062 0.50781-0.625 1.1562-0.9375 1.9375-0.9375 0.4375 0 0.82812 0.089844 1.1719 0.26562 0.34375 0.17969 0.65625 0.44922 0.9375 0.8125zm-1.3438 4.1406c0.4375 0 0.76953-0.16016 1-0.48438 0.22656-0.32031 0.34375-0.78516 0.34375-1.3906 0-0.60156-0.11719-1.0664-0.34375-1.3906-0.23047-0.32031-0.5625-0.48438-1-0.48438s-0.77344 0.16406-1 0.48438c-0.23047 0.32422-0.34375 0.78906-0.34375 1.3906 0 0.60547 0.11328 1.0703 0.34375 1.3906 0.22656 0.32422 0.5625 0.48438 1 0.48438z"/>
  </symbol>
  <symbol id="k" overflow="visible">
   <path d="m4.375-1.3125c0.4375 0 0.76953-0.16016 1-0.48438 0.22656-0.32031 0.34375-0.78516 0.34375-1.3906 0-0.60156-0.11719-1.0664-0.34375-1.3906-0.23047-0.32031-0.5625-0.48438-1-0.48438s-0.77734 0.16406-1.0156 0.48438c-0.23047 0.32422-0.34375 0.78906-0.34375 1.3906 0 0.60547 0.11328 1.0703 0.34375 1.3906 0.23828 0.32422 0.57812 0.48438 1.0156 0.48438zm-1.3594-4.1406c0.28125-0.36328 0.59375-0.63281 0.9375-0.8125 0.34375-0.17578 0.73828-0.26562 1.1875-0.26562 0.78125 0 1.4219 0.3125 1.9219 0.9375 0.50781 0.625 0.76562 1.4297 0.76562 2.4062 0 0.99219-0.25781 1.7969-0.76562 2.4219-0.5 0.625-1.1406 0.9375-1.9219 0.9375-0.44922 0-0.84375-0.089844-1.1875-0.26562-0.34375-0.17578-0.65625-0.45312-0.9375-0.82812v0.92188h-2.0312v-8.875h2.0312z"/>
  </symbol>
  <symbol id="e" overflow="visible">
   <path d="m0.14062-6.3906h2.0469l1.7031 4.3438 1.4688-4.3438h2.0312l-2.6719 7c-0.27344 0.70703-0.58984 1.2031-0.95312 1.4844-0.35547 0.28125-0.82812 0.42188-1.4219 0.42188h-1.1719v-1.3281h0.64062c0.34375 0 0.59375-0.058594 0.75-0.17188 0.15625-0.11719 0.27344-0.3125 0.35938-0.59375l0.0625-0.17188z"/>
  </symbol>
  <symbol id="j" overflow="visible">
   <path d="m0.34375-8.5156h2.1094l1.4688 6.1875 1.4531-6.1875h2.125l1.4531 6.1875 1.4688-6.1875h2.0938l-2.0156 8.5156h-2.5312l-1.5469-6.4688-1.5156 6.4688h-2.5312z"/>
  </symbol>
  <symbol id="i" overflow="visible">
   <path d="m7.3906-3.8906v3.8906h-2.0469v-2.9688c0-0.55078-0.015625-0.92969-0.046875-1.1406-0.023437-0.20703-0.058594-0.36328-0.10938-0.46875-0.085938-0.13281-0.19531-0.23828-0.32812-0.3125-0.13672-0.070313-0.29297-0.10938-0.46875-0.10938-0.42969 0-0.76562 0.16797-1.0156 0.5-0.24219 0.32422-0.35938 0.77734-0.35938 1.3594v3.1406h-2.0312v-8.875h2.0312v3.4219c0.3125-0.36328 0.64062-0.63281 0.98438-0.8125 0.34375-0.17578 0.72266-0.26562 1.1406-0.26562 0.73828 0 1.2969 0.22656 1.6719 0.67188 0.38281 0.44922 0.57812 1.1055 0.57812 1.9688z"/>
  </symbol>
  <symbol id="h" overflow="visible">
   <path d="m0.90625-2.4844v-3.9062h2.0625v0.64062c0 0.35547-0.007812 0.79297-0.015625 1.3125v1.0469c0 0.51172 0.007813 0.88281 0.03125 1.1094 0.03125 0.21875 0.078125 0.38281 0.14062 0.48438 0.082031 0.13672 0.19141 0.24219 0.32812 0.3125 0.13281 0.074219 0.28906 0.10938 0.46875 0.10938 0.42578 0 0.75781-0.16016 1-0.48438 0.23828-0.33203 0.35938-0.78906 0.35938-1.375v-3.1562h2.0469v6.3906h-2.0469v-0.92188c-0.30469 0.375-0.625 0.65234-0.96875 0.82812-0.34375 0.17578-0.72656 0.26562-1.1406 0.26562-0.74219 0-1.3047-0.22266-1.6875-0.67188-0.38672-0.45703-0.57812-1.1172-0.57812-1.9844z"/>
  </symbol>
  <symbol id="g" overflow="visible">
   <path d="m7.3906-3.8906v3.8906h-2.0469v-2.9688c0-0.55078-0.015625-0.92969-0.046875-1.1406-0.023437-0.20703-0.058594-0.36328-0.10938-0.46875-0.085938-0.13281-0.19531-0.23828-0.32812-0.3125-0.13672-0.070313-0.29297-0.10938-0.46875-0.10938-0.42969 0-0.76562 0.16797-1.0156 0.5-0.24219 0.32422-0.35938 0.77734-0.35938 1.3594v3.1406h-2.0312v-6.3906h2.0312v0.9375c0.3125-0.36328 0.64062-0.63281 0.98438-0.8125 0.34375-0.17578 0.72266-0.26562 1.1406-0.26562 0.73828 0 1.2969 0.22656 1.6719 0.67188 0.38281 0.44922 0.57812 1.1055 0.57812 1.9688z"/>
  </symbol>
  <symbol id="t" overflow="visible">
   <path d="m0.98438-6.3906h2.0312v6.3906h-2.0312zm0-2.4844h2.0312v1.6719h-2.0312z"/>
  </symbol>
  <symbol id="s" overflow="visible">
   <path d="m0.98438-8.875h2.0312v8.875h-2.0312z"/>
  </symbol>
  <symbol id="r" overflow="visible">
   <path d="m5.1875-8.875v1.3438h-1.1406c-0.28125 0-0.48047 0.054688-0.59375 0.15625-0.11719 0.10547-0.17188 0.28906-0.17188 0.54688v0.4375h1.7344v1.4688h-1.7344v4.9219h-2.0469v-4.9219h-1.0156v-1.4688h1.0156v-0.4375c0-0.69531 0.19141-1.2109 0.57812-1.5469 0.39453-0.33203 1-0.5 1.8125-0.5z"/>
  </symbol>
  <symbol id="d" overflow="visible">
   <path d="m4.0156-5.0781c-0.44922 0-0.79297 0.16406-1.0312 0.48438-0.24219 0.32422-0.35938 0.79297-0.35938 1.4062 0 0.61719 0.11719 1.0859 0.35938 1.4062 0.23828 0.32422 0.58203 0.48438 1.0312 0.48438 0.44531 0 0.78516-0.16016 1.0156-0.48438 0.23828-0.32031 0.35938-0.78906 0.35938-1.4062 0-0.61328-0.12109-1.082-0.35938-1.4062-0.23047-0.32031-0.57031-0.48438-1.0156-0.48438zm0-1.4531c1.1016 0 1.9609 0.29688 2.5781 0.89062 0.61328 0.58594 0.92188 1.4023 0.92188 2.4531 0 1.0547-0.30859 1.875-0.92188 2.4688-0.61719 0.59375-1.4766 0.89062-2.5781 0.89062-1.1055 0-1.9688-0.29688-2.5938-0.89062-0.61719-0.59375-0.92188-1.4141-0.92188-2.4688 0-1.0508 0.30469-1.8672 0.92188-2.4531 0.625-0.59375 1.4883-0.89062 2.5938-0.89062z"/>
  </symbol>
  <symbol id="q" overflow="visible">
   <path d="m6.8906-5.3281c0.25781-0.39453 0.56641-0.69141 0.92188-0.89062 0.35156-0.20703 0.74219-0.3125 1.1719-0.3125 0.73828 0 1.2969 0.22656 1.6719 0.67188 0.38281 0.44922 0.57812 1.1055 0.57812 1.9688v3.8906h-2.0469v-3.3281-0.15625c0.007812-0.050781 0.015625-0.125 0.015625-0.21875 0-0.45703-0.070313-0.78516-0.20312-0.98438-0.13672-0.20703-0.35156-0.3125-0.64062-0.3125-0.38672 0-0.6875 0.16406-0.90625 0.48438-0.21094 0.3125-0.32031 0.77344-0.32812 1.375v3.1406h-2.0469v-3.3281c0-0.70703-0.0625-1.1602-0.1875-1.3594-0.11719-0.20703-0.32812-0.3125-0.64062-0.3125-0.39844 0-0.70312 0.16406-0.92188 0.48438-0.21094 0.32422-0.3125 0.78125-0.3125 1.375v3.1406h-2.0469v-6.3906h2.0469v0.9375c0.25-0.35156 0.53516-0.61719 0.85938-0.79688 0.33203-0.1875 0.69141-0.28125 1.0781-0.28125 0.44531 0 0.83594 0.10547 1.1719 0.3125 0.34375 0.21094 0.59766 0.50781 0.76562 0.89062z"/>
  </symbol>
  <symbol id="p" overflow="visible">
   <path d="m1.0781-8.5156h2.4375l3.0938 5.8438v-5.8438h2.0938v8.5156h-2.4531l-3.0938-5.8438v5.8438h-2.0781z"/>
  </symbol>
  <symbol id="o" overflow="visible">
   <path d="m1.0781-8.5156h3.6406c1.082 0 1.9102 0.24609 2.4844 0.73438 0.58203 0.48047 0.875 1.1641 0.875 2.0469 0 0.89844-0.29297 1.5859-0.875 2.0625-0.57422 0.48047-1.4023 0.71875-2.4844 0.71875h-1.4531v2.9531h-2.1875zm2.1875 1.5938v2.375h1.2188c0.42578 0 0.75391-0.097656 0.98438-0.29688 0.22656-0.20703 0.34375-0.50391 0.34375-0.89062 0-0.375-0.11719-0.66406-0.34375-0.875-0.23047-0.20703-0.55859-0.3125-0.98438-0.3125z"/>
  </symbol>
  <symbol id="n" overflow="visible">
   <path d="m0.98438-6.3906h2.0312v6.2812c0 0.85156-0.20312 1.5039-0.60938 1.9531-0.40625 0.44531-1 0.67188-1.7812 0.67188h-1.0156v-1.3281h0.35938c0.38281 0 0.64844-0.089844 0.79688-0.26562 0.14453-0.17969 0.21875-0.52344 0.21875-1.0312zm0-2.4844h2.0312v1.6719h-2.0312z"/>
  </symbol>
  <symbol id="m" overflow="visible">
   <path d="m6.1406-6.1875v1.6719c-0.28125-0.1875-0.5625-0.32812-0.84375-0.42188-0.27344-0.09375-0.55859-0.14062-0.85938-0.14062-0.57422 0-1.0234 0.16797-1.3438 0.5-0.3125 0.33594-0.46875 0.79688-0.46875 1.3906s0.15625 1.0586 0.46875 1.3906c0.32031 0.33594 0.76953 0.5 1.3438 0.5 0.3125 0 0.60938-0.046875 0.89062-0.14062 0.28906-0.09375 0.5625-0.23438 0.8125-0.42188v1.6719c-0.32422 0.11719-0.65234 0.20312-0.98438 0.26562-0.32422 0.0625-0.65234 0.09375-0.98438 0.09375-1.1484 0-2.0469-0.29688-2.7031-0.89062-0.64844-0.59375-0.96875-1.4141-0.96875-2.4688 0-1.0508 0.32031-1.8672 0.96875-2.4531 0.65625-0.59375 1.5547-0.89062 2.7031-0.89062 0.33203 0 0.66016 0.03125 0.98438 0.09375 0.33203 0.054688 0.66016 0.13672 0.98438 0.25z"/>
  </symbol>
 </defs>
 <g>
  <path d="m644 11.668c-140 158.67-270.67 329-378 511-25.668 46.668-35 49-70 2.332l-137.67-184.33c-23.332-35 11.668-44.332 51.332-9.332l121.33 100.33c119-161 238-315 401.33-424.67 11.668-9.332 25.668-9.332 11.668 4.668z" fill-rule="evenodd"/>
 </g>
</svg>
